# xmcd
#
# Track frame offsets:
# 150
# 2460
# 27147
# 46575
# 66685
# 83862
# 102000
# 135477
# 162177
# 182580
# 195607
# 216657
#
# Disc length: 3120 seconds
#
#
# Revision: 7
# Processed by: cddbd v1.5.2PL0 Copyright (c) Steve Scherf et al.
# Submitted via: FreeRIP 2.951 
#
DISCID=990c2e0c
DTITLE=Whirlpool Productions - Dense Music
DYEAR=1996
DGENRE=Dance
TTITLE0=Intro
TTITLE1=Ja
TTITLE2=Dense Music
TTITLE3=International Cigarette
TTITLE4=The Cold Song
TTITLE5=Gehende Katzen
TTITLE6=One Two
TTITLE7=From: Disco To: Disco
TTITLE8=I Just Don't Know
TTITLE9=In The Night
TTITLE10=Our Body
TTITLE11=The Cold Song - Akustik Version
EXTD=YEAR: 1996
EXTT0=
EXTT1=
EXTT2=
EXTT3=
EXTT4=
EXTT5=
EXTT6=
EXTT7=
EXTT8=
EXTT9=
EXTT10=
EXTT11=
PLAYORDER=
